<svg fill='#C4EB67' id="Layer_3" enable-background="new 0 0 64 64" height="512" viewBox="0 0 64 64" width="512" xmlns="http://www.w3.org/2000/svg"><path d="m8 56c0 2.757 2.243 5 5 5h43v-2h-43c-1.654 0-3-1.346-3-3s1.346-3 3-3h43v-2h-43c-2.757 0-5 2.243-5 5z"/><path d="m23 37h18v2h-18z"/><path d="m12 56c0 .551.448 1 1 1h43v-2h-43c-.552 0-1 .449-1 1z"/><path d="m50 3h-36c-3.309 0-6 2.691-6 6v42.105c1.271-1.298 3.043-2.105 5-2.105h43v-40c0-3.309-2.691-6-6-6zm-5 42h-26v-2h26zm-2-18.055v13.055c0 .552-.447 1-1 1h-20c-.553 0-1-.448-1-1v-13.055c-4.494-.499-8-4.32-8-8.945 0-4.962 4.037-9 9-9 .795 0 1.574.11 2.331.313 1.584-2.581 4.424-4.313 7.669-4.313s6.085 1.732 7.669 4.313c.757-.203 1.536-.313 2.331-.313 4.963 0 9 4.038 9 9 0 4.625-3.506 8.446-8 8.945z"/><path d="m42 11c-.498 0-.988.056-1.467.159.299.894.467 1.847.467 2.841h-2c0-3.86-3.141-7-7-7s-7 3.14-7 7h-2c0-.994.168-1.947.467-2.841-.479-.103-.969-.159-1.467-.159-3.859 0-7 3.14-7 7s3.141 7 7 7c.553 0 1 .448 1 1v9h18v-9c0-.552.447-1 1-1 3.859 0 7-3.14 7-7s-3.141-7-7-7zm0 12v-2c1.654 0 3-1.346 3-3h2c0 2.757-2.243 5-5 5z"/></svg>
